<svg width="64" height="64" viewBox="0 0 64 64" fill="none" xmlns="http://www.w3.org/2000/svg">
<rect width="64" height="64" rx="32" fill="#FDC886" fill-opacity="0.2"/>
<path d="M24.9457 27.6294C25.2489 26.7652 26.8949 26.7652 27.1982 27.6294C27.923 29.6946 29.0047 32.0867 30.4636 33.5457C31.9225 35.0046 34.3147 36.0863 36.3799 36.8111C37.244 37.1144 37.244 38.7603 36.3799 39.0636C34.3147 39.7884 31.9225 40.8701 30.4636 42.329C29.0047 43.7879 27.923 46.1801 27.1982 48.2453C26.8949 49.1094 25.2489 49.1094 24.9457 48.2453C24.2209 46.1801 23.1392 43.7879 21.6803 42.329C20.2213 40.8701 17.8292 39.7884 15.764 39.0636C14.8998 38.7603 14.8998 37.1144 15.764 36.8111C17.8292 36.0863 20.2213 35.0046 21.6803 33.5457C23.1392 32.0867 24.2209 29.6946 24.9457 27.6294Z" fill="#FDC886"/>
<path d="M43.1277 36.5858C43.2715 36.151 44.0765 36.151 44.2203 36.5858C44.6403 37.8558 45.307 39.4331 46.2358 40.362C47.1646 41.2908 48.7419 41.9575 50.012 42.3775C50.4467 42.5213 50.4467 43.3262 50.012 43.47C48.7419 43.89 47.1646 44.5567 46.2358 45.4856C45.307 46.4144 44.6403 47.9917 44.2203 49.2617C44.0765 49.6965 43.2715 49.6965 43.1277 49.2617C42.7077 47.9917 42.041 46.4144 41.1122 45.4856C40.1834 44.5567 38.6061 43.89 37.3361 43.47C36.9013 43.3262 36.9013 42.5213 37.3361 42.3775C38.6061 41.9575 40.1834 41.2908 41.1122 40.362C42.041 39.4331 42.7077 37.8558 43.1277 36.5858Z" fill="#FDC886"/>
<path d="M19.5786 14.7188C19.7224 14.284 20.5274 14.284 20.6712 14.7188C21.0912 15.9888 21.7579 17.5661 22.6867 18.495C23.6155 19.4238 25.1928 20.0905 26.4629 20.5105C26.8976 20.6543 26.8976 21.4592 26.4629 21.603C25.1928 22.023 23.6155 22.6897 22.6867 23.6186C21.7579 24.5474 21.0912 26.1247 20.6712 27.3947C20.5274 27.8295 19.7224 27.8295 19.5786 27.3947C19.1586 26.1247 18.4919 24.5474 17.5631 23.6186C16.6343 22.6897 15.057 22.023 13.787 21.603C13.3522 21.4592 13.3522 20.6543 13.787 20.5105C15.057 20.0905 16.6343 19.4238 17.5631 18.495C18.4919 17.5661 19.1586 15.9888 19.5786 14.7188Z" fill="#FDC886"/>
<path d="M38.1159 16.67C38.4601 15.8213 40.1893 15.8213 40.5335 16.67C41.0539 17.9528 41.7463 19.2697 42.6184 20.1418C43.4906 21.014 44.8074 21.7064 46.0903 22.2267C46.939 22.571 46.939 24.3002 46.0903 24.6444C44.8074 25.1648 43.4906 25.8572 42.6184 26.7293C41.7463 27.6015 41.0539 28.9183 40.5335 30.2012C40.1893 31.0499 38.4601 31.0499 38.1159 30.2012C37.5955 28.9183 36.9031 27.6015 36.0309 26.7293C35.1588 25.8572 33.8419 25.1648 32.5591 24.6444C31.7104 24.3002 31.7104 22.571 32.5591 22.2267C33.8419 21.7064 35.1588 21.014 36.0309 20.1418C36.9031 19.2697 37.5955 17.9528 38.1159 16.67Z" fill="#FDC886"/>
</svg>
