<svg width="64" height="64" viewBox="0 0 64 64" fill="none" xmlns="http://www.w3.org/2000/svg">
<rect width="64" height="64" rx="32" fill="#FDC886" fill-opacity="0.2"/>
<path d="M24.355 12.8222C24.355 11.8158 25.1709 11 26.1772 11H33.4661C34.4725 11 35.2884 11.8158 35.2884 12.8222V13.7333C35.2884 16.2493 33.2488 18.2889 30.7328 18.2889H28.9106C26.3946 18.2889 24.355 16.2493 24.355 13.7333V12.8222Z" fill="#FDC886"/>
<path d="M23.2994 22.448C23.9539 21.5356 25.0115 21.0222 26.1344 21.0222H33.509C34.6319 21.0222 35.6895 21.5356 36.344 22.448C38.5301 25.4955 43.43 32.8497 44.3995 38.7889C44.7804 41.1224 45.1832 42.9719 44.661 44.8605C43.7371 48.2017 39.7376 49.2667 36.271 49.2667H23.3723C19.9058 49.2667 15.9062 48.2017 14.9824 44.8605C14.4602 42.9719 14.863 41.1224 15.2439 38.7889C16.2134 32.8497 21.1133 25.4955 23.2994 22.448Z" fill="#FDC886"/>
<path d="M30.4413 43.104C30.1255 43.104 29.8643 42.9946 29.6578 42.776C29.4513 42.5695 29.348 42.3143 29.348 42.0106V40.9355C28.6434 40.8869 28.0178 40.7776 27.4711 40.6075C26.9366 40.4253 26.481 40.237 26.1044 40.0426C25.7643 39.8726 25.5517 39.6357 25.4667 39.332C25.3816 39.0161 25.3938 38.7185 25.5031 38.4391C25.6246 38.1475 25.819 37.941 26.0862 37.8195C26.3656 37.6859 26.6936 37.7102 27.0702 37.8924C27.3618 38.0503 27.7687 38.2143 28.2911 38.3844C28.8135 38.5423 29.4513 38.6213 30.2044 38.6213C31.0427 38.6213 31.6379 38.4877 31.9902 38.2204C32.3425 37.9532 32.5187 37.6191 32.5187 37.2182C32.5187 36.8902 32.3972 36.6169 32.1542 36.3982C31.9113 36.1795 31.4739 36.0034 30.8422 35.8698L28.8378 35.4324C26.6268 34.9465 25.5213 33.7681 25.5213 31.8973C25.5213 30.8769 25.8676 30.0143 26.56 29.3098C27.2524 28.6052 28.1818 28.1618 29.348 27.9795V26.8315C29.348 26.5278 29.4513 26.2727 29.6578 26.0662C29.8643 25.8475 30.1255 25.7382 30.4413 25.7382C30.745 25.7382 31.0002 25.8475 31.2067 26.0662C31.4132 26.2727 31.5164 26.5278 31.5164 26.8315V27.9249C31.9659 27.9856 32.4276 28.0949 32.9013 28.2529C33.3873 28.4108 33.8124 28.6173 34.1769 28.8724C34.4684 29.0546 34.6446 29.2915 34.7053 29.5831C34.7782 29.8625 34.7539 30.1298 34.6324 30.3849C34.511 30.64 34.3105 30.8222 34.0311 30.9315C33.7639 31.0287 33.4359 30.9801 33.0471 30.7858C32.7191 30.6278 32.3607 30.4942 31.972 30.3849C31.5833 30.2755 31.1034 30.2209 30.5324 30.2209C29.8279 30.2209 29.2751 30.3666 28.8742 30.6582C28.4733 30.9498 28.2729 31.3263 28.2729 31.788C28.2729 32.116 28.3883 32.3893 28.6191 32.608C28.8621 32.8145 29.2812 32.9846 29.8764 33.1182L31.8991 33.5555C33.0532 33.8106 33.9036 34.2298 34.4502 34.8129C35.009 35.3838 35.2884 36.1188 35.2884 37.0178C35.2884 38.0503 34.9362 38.9007 34.2316 39.5689C33.5391 40.237 32.6341 40.6683 31.5164 40.8626V42.0106C31.5164 42.3143 31.4132 42.5695 31.2067 42.776C31.0002 42.9946 30.745 43.104 30.4413 43.104Z" fill="#FFF4E7"/>
<circle cx="42.9778" cy="44.7111" r="6.37778" fill="#FDC886" stroke="#FFF4E7" stroke-width="1.82222"/>
<rect x="41.533" y="41.9778" width="5.46667" height="1.82222" rx="0.911111" transform="rotate(45 41.533 41.9778)" fill="#FFF4E7"/>
<rect x="40.2445" y="45.8433" width="5.46667" height="1.82222" rx="0.911111" transform="rotate(-45 40.2445 45.8433)" fill="#FFF4E7"/>
</svg>
