<svg width="118" height="38" viewBox="0 0 118 38" fill="none" xmlns="http://www.w3.org/2000/svg">
<path d="M12.2326 31.4289V27.0972C12.2326 25.9914 13.1356 25.095 14.2494 25.095H18.3212C18.8561 25.095 19.3691 25.3059 19.7473 25.6814C20.1256 26.0569 20.338 26.5662 20.338 27.0972V31.4289C20.3347 31.8887 20.5163 32.3307 20.8425 32.657C21.1688 32.9832 21.6127 33.1667 22.0758 33.1667H24.8538C26.1511 33.17 27.3966 32.6607 28.3152 31.7512C29.2337 30.8416 29.75 29.6066 29.75 28.3186V15.9781C29.75 14.9377 29.2854 13.9508 28.4815 13.2833L19.0315 5.79086C17.3877 4.47717 15.0324 4.51959 13.4376 5.89159L4.20327 13.2833C3.36138 13.9311 2.8582 14.9209 2.83333 15.9781V28.306C2.83333 30.9905 5.02546 33.1667 7.72958 33.1667H10.4441C11.4059 33.1667 12.1876 32.3963 12.1945 31.4415L12.2326 31.4289Z" fill="#5A4FCF"/>
<path d="M46.2736 28.252C45.5642 28.252 45.0229 28.056 44.6496 27.664C44.2762 27.272 44.0896 26.7213 44.0896 26.012V10.472C44.0896 8.99733 44.8269 8.26 46.3016 8.26H53.1056C55.3082 8.26 57.0069 8.792 58.2016 9.856C59.3962 10.92 59.9936 12.404 59.9936 14.308C59.9936 15.7827 59.6109 17.0147 58.8456 18.004C58.0989 18.9747 57.0256 19.6373 55.6256 19.992C56.6149 20.2907 57.4269 21.0093 58.0616 22.148L59.7976 25.368C60.1896 26.0773 60.2642 26.74 60.0216 27.356C59.7789 27.9533 59.1909 28.252 58.2576 28.252C57.6416 28.252 57.1376 28.1213 56.7456 27.86C56.3536 27.5987 56.0176 27.1973 55.7376 26.656L53.0496 21.7C52.7696 21.1773 52.4242 20.8227 52.0136 20.636C51.6029 20.4493 51.1176 20.356 50.5576 20.356H48.4296V26.012C48.4296 26.7213 48.2429 27.272 47.8696 27.664C47.5149 28.056 46.9829 28.252 46.2736 28.252ZM48.4296 17.22H52.3216C54.6549 17.22 55.8216 16.2867 55.8216 14.42C55.8216 12.572 54.6549 11.648 52.3216 11.648H48.4296V17.22ZM69.9788 28.308C68.3548 28.308 66.9548 28.0187 65.7788 27.44C64.6215 26.8427 63.7255 26.012 63.0908 24.948C62.4748 23.8653 62.1668 22.596 62.1668 21.14C62.1668 19.7213 62.4655 18.48 63.0628 17.416C63.6788 16.3333 64.5095 15.4933 65.5548 14.896C66.6188 14.28 67.8415 13.972 69.2228 13.972C71.2202 13.972 72.8068 14.6067 73.9828 15.876C75.1588 17.1267 75.7468 18.8253 75.7468 20.972C75.7468 21.6813 75.3082 22.036 74.4308 22.036H66.1988C66.3482 23.1187 66.7402 23.912 67.3748 24.416C68.0282 24.9013 68.9242 25.144 70.0628 25.144C70.5108 25.144 71.0148 25.0973 71.5748 25.004C72.1535 24.892 72.7042 24.7053 73.2268 24.444C73.7682 24.1827 74.2255 24.136 74.5988 24.304C74.9722 24.4533 75.2242 24.7147 75.3548 25.088C75.5042 25.4613 75.5042 25.8533 75.3548 26.264C75.2242 26.656 74.9162 26.9827 74.4308 27.244C73.7775 27.5987 73.0495 27.86 72.2468 28.028C71.4628 28.2147 70.7068 28.308 69.9788 28.308ZM69.3908 16.772C68.4948 16.772 67.7668 17.0427 67.2068 17.584C66.6655 18.1253 66.3295 18.8813 66.1988 19.852H72.2468C72.1348 17.7987 71.1828 16.772 69.3908 16.772ZM83.47 28.308C82.6487 28.308 81.7994 28.2333 80.922 28.084C80.0634 27.9347 79.2794 27.6827 78.57 27.328C78.1034 27.0853 77.7954 26.7773 77.646 26.404C77.5154 26.0307 77.5154 25.6667 77.646 25.312C77.7767 24.9573 78.01 24.696 78.346 24.528C78.682 24.3413 79.074 24.3413 79.522 24.528C80.2874 24.8453 80.9874 25.0693 81.622 25.2C82.2754 25.3307 82.9007 25.396 83.498 25.396C84.282 25.396 84.8607 25.2747 85.234 25.032C85.6074 24.7707 85.794 24.4347 85.794 24.024C85.794 23.3707 85.318 22.96 84.366 22.792L81.426 22.26C80.25 22.0547 79.354 21.6347 78.738 21C78.122 20.3653 77.814 19.5347 77.814 18.508C77.814 17.5747 78.0754 16.772 78.598 16.1C79.1207 15.428 79.8394 14.9053 80.754 14.532C81.6687 14.1587 82.7234 13.972 83.918 13.972C85.5607 13.972 87.0167 14.2893 88.286 14.924C88.7154 15.1293 88.9767 15.4187 89.07 15.792C89.182 16.1653 89.1634 16.5293 89.014 16.884C88.8647 17.2387 88.622 17.5093 88.286 17.696C87.95 17.864 87.5487 17.8453 87.082 17.64C86.466 17.36 85.906 17.164 85.402 17.052C84.898 16.9213 84.422 16.856 83.974 16.856C83.134 16.856 82.5274 16.996 82.154 17.276C81.7807 17.5373 81.594 17.8733 81.594 18.284C81.594 18.9373 82.0327 19.348 82.91 19.516L85.85 20.048C87.0634 20.2533 87.9874 20.664 88.622 21.28C89.2567 21.8773 89.574 22.6987 89.574 23.744C89.574 25.1813 89.014 26.3013 87.894 27.104C86.774 27.9067 85.2994 28.308 83.47 28.308ZM98.5986 28.308C94.7346 28.308 92.8026 26.432 92.8026 22.68V17.416H91.6266C90.5252 17.416 89.9746 16.8933 89.9746 15.848C89.9746 14.784 90.5252 14.252 91.6266 14.252H92.8026V12.124C92.8026 10.6867 93.5119 9.968 94.9306 9.968C96.3306 9.968 97.0306 10.6867 97.0306 12.124V14.252H99.6906C100.773 14.252 101.315 14.784 101.315 15.848C101.315 16.8933 100.773 17.416 99.6906 17.416H97.0306V22.512C97.0306 23.296 97.2079 23.884 97.5626 24.276C97.9359 24.668 98.5239 24.864 99.3266 24.864C99.6066 24.864 99.8679 24.836 100.111 24.78C100.353 24.724 100.577 24.6867 100.783 24.668C101.044 24.6493 101.259 24.7333 101.427 24.92C101.595 25.1067 101.679 25.4893 101.679 26.068C101.679 26.5347 101.604 26.936 101.455 27.272C101.305 27.5893 101.044 27.8227 100.671 27.972C100.428 28.0653 100.092 28.14 99.6626 28.196C99.2519 28.2707 98.8972 28.308 98.5986 28.308ZM109.642 28.308C108.167 28.308 106.879 28.0187 105.778 27.44C104.695 26.8427 103.855 26.012 103.258 24.948C102.661 23.8653 102.362 22.5867 102.362 21.112C102.362 19.656 102.661 18.396 103.258 17.332C103.855 16.2493 104.695 15.4187 105.778 14.84C106.879 14.2613 108.167 13.972 109.642 13.972C111.117 13.972 112.395 14.2613 113.478 14.84C114.579 15.4187 115.429 16.2493 116.026 17.332C116.642 18.396 116.95 19.656 116.95 21.112C116.95 22.5867 116.642 23.8653 116.026 24.948C115.429 26.012 114.579 26.8427 113.478 27.44C112.395 28.0187 111.117 28.308 109.642 28.308ZM109.642 25.144C110.538 25.144 111.266 24.8173 111.826 24.164C112.405 23.5107 112.694 22.4933 112.694 21.112C112.694 19.7493 112.405 18.7507 111.826 18.116C111.266 17.4627 110.538 17.136 109.642 17.136C108.746 17.136 108.018 17.4627 107.458 18.116C106.898 18.7507 106.618 19.7493 106.618 21.112C106.618 22.4933 106.898 23.5107 107.458 24.164C108.018 24.8173 108.746 25.144 109.642 25.144Z" fill="#232631"/>
</svg>
